HIERARCHY
ROOT Hips
{
	OFFSET 0.000000 0.000000 0.000000
	CHANNELS 6 Xposition Yposition Zposition Zrotation Yrotation Xrotation 
	JOINT LHipJoint
	{
		OFFSET 0.000000 0.000000 0.000000
		CHANNELS 3 Zrotation Yrotation Xrotation
		JOINT LeftUpLeg
		{
			OFFSET 1.363060 -1.794630 0.839290
			CHANNELS 3 Zrotation Yrotation Xrotation
			JOINT LeftLeg
			{
				OFFSET 2.448110 -6.726130 0.000000
				CHANNELS 3 Zrotation Yrotation Xrotation
				JOINT LeftFoot
				{
					OFFSET 2.562200 -7.039590 0.000000
					CHANNELS 3 Zrotation Yrotation Xrotation
					JOINT LeftToeBase
					{
						OFFSET 0.157640 -0.433110 2.322550
						CHANNELS 3 Zrotation Yrotation Xrotation
						End Site
						{
							OFFSET 0.000000 0.000000 0.000000
						}
					}
				}
			}
		}
	}
	JOINT RHipJoint
	{
		OFFSET 0.000000 0.000000 0.000000
		CHANNELS 3 Zrotation Yrotation Xrotation
		JOINT RightUpLeg
		{
			OFFSET -1.305520 -1.794630 0.839290
			CHANNELS 3 Zrotation Yrotation Xrotation
			JOINT RightLeg
			{
				OFFSET -2.542530 -6.985550 0.000000
				CHANNELS 3 Zrotation Yrotation Xrotation
				JOINT RightFoot
				{
					OFFSET -2.568260 -7.056230 0.000000
					CHANNELS 3 Zrotation Yrotation Xrotation
					JOINT RightToeBase
					{
						OFFSET -0.164730 -0.452590 2.363150
						CHANNELS 3 Zrotation Yrotation Xrotation
						End Site
						{
							OFFSET 0.000000 0.000000 0.000000
						}
					}
				}
			}
		}
	}
	JOINT LowerBack
	{
		OFFSET 0.000000 0.000000 0.000000
		CHANNELS 3 Zrotation Yrotation Xrotation
		JOINT Spine
		{
			OFFSET 0.028270 2.035590 -0.193380
			CHANNELS 3 Zrotation Yrotation Xrotation
			JOINT Spine1
			{
				OFFSET 0.056720 2.048850 -0.042750
				CHANNELS 3 Zrotation Yrotation Xrotation
				JOINT Neck
				{
					OFFSET 0.000000 0.000000 0.000000
					CHANNELS 3 Zrotation Yrotation Xrotation
					JOINT Neck1
					{
						OFFSET -0.054170 1.746240 0.172020
						CHANNELS 3 Zrotation Yrotation Xrotation
						JOINT Head
						{
							OFFSET 0.104070 1.761360 -0.123970
							CHANNELS 3 Zrotation Yrotation Xrotation
							End Site
							{
								OFFSET 0.000000 0.000000 0.000000
							}
						}
					}
				}
				JOINT LeftShoulder
				{
					OFFSET 0.000000 0.000000 0.000000
					CHANNELS 3 Zrotation Yrotation Xrotation
					JOINT LeftArm
					{
						OFFSET 3.362410 1.200890 -0.311210
						CHANNELS 3 Zrotation Yrotation Xrotation
						JOINT LeftForeArm
						{
							OFFSET 4.983000 -0.000000 -0.000000
							CHANNELS 3 Zrotation Yrotation Xrotation
							JOINT LeftHand
							{
								OFFSET 3.483560 -0.000000 -0.000000
								CHANNELS 3 Zrotation Yrotation Xrotation
								JOINT LeftFingerBase
								{
									OFFSET 0.000000 0.000000 0.000000
									CHANNELS 3 Zrotation Yrotation Xrotation
									JOINT LeftHandIndex1
									{
										OFFSET 0.715260 -0.000000 -0.000000
										CHANNELS 3 Zrotation Yrotation Xrotation
										End Site
										{
											OFFSET 0.000000 0.000000 0.000000
										}
									}
								}
								JOINT LThumb
								{
									OFFSET 0.000000 0.000000 0.000000
									CHANNELS 3 Zrotation Yrotation Xrotation
									End Site
									{
										OFFSET 0.000000 0.000000 0.000000
									}
								}
							}
						}
					}
				}
				JOINT RightShoulder
				{
					OFFSET 0.000000 0.000000 0.000000
					CHANNELS 3 Zrotation Yrotation Xrotation
					JOINT RightArm
					{
						OFFSET -3.136600 1.374050 -0.404650
						CHANNELS 3 Zrotation Yrotation Xrotation
						JOINT RightForeArm
						{
							OFFSET -5.241900 -0.000000 -0.000000
							CHANNELS 3 Zrotation Yrotation Xrotation
							JOINT RightHand
							{
								OFFSET -3.444170 -0.000000 -0.000000
								CHANNELS 3 Zrotation Yrotation Xrotation
								JOINT RightFingerBase
								{
									OFFSET 0.000000 0.000000 0.000000
									CHANNELS 3 Zrotation Yrotation Xrotation
									JOINT RightHandIndex1
									{
										OFFSET -0.622530 -0.000000 -0.000000
										CHANNELS 3 Zrotation Yrotation Xrotation
										End Site
										{
											OFFSET 0.000000 0.000000 0.000000
										}
									}
								}
								JOINT RThumb
								{
									OFFSET 0.000000 0.000000 0.000000
									CHANNELS 3 Zrotation Yrotation Xrotation
									End Site
									{
										OFFSET 0.000000 0.000000 0.000000
									}
								}
							}
						}
					}
				}
			}
		}
	}
}
MOTION
Frames: 6
Frame Time: 0.008333
1.526627 18.061979 0.399734 106.549684 89.516554 123.642955 -2.430894 0.867025 1.592838 -17.369035 1.079473 -22.886471 1.116419 5.107583 15.489510 1.072862 -2.876963 3.035856 2.367300 -9.592500 -27.666900 -1.744062 -2.538385 0.278078 20.556396 -2.347890 -13.541251 -0.764323 0.548360 1.150697 -0.571907 6.503736 6.545918 -0.139200 2.404500 -6.624900 3.397733 -0.921454 -9.526341 1.589848 -1.741085 -1.036995 -3.852597 -1.241070 4.150038 -2.013338 -2.126475 -24.267508 6.307903 -1.948918 17.393716 -0.370300 -0.006200 9.343400 -1.326067 -3.891631 2.619581 -94.738389 -51.497129 30.100464 50.204242 -50.502911 -22.143764 -1.738386 1.048037 -72.812484 18.288002 30.320011 8.667200 -7.125000 0.000000 0.000000 -14.542800 58.903900 -5.008700 3.103283 5.367076 4.710783 105.306195 58.500451 25.210429 -36.405442 47.527886 -10.469175 1.362476 -0.404160 141.649574 -14.495546 -2.139772 0.816100 7.125000 0.000000 0.000000 10.516400 -33.296600 3.060900 
1.526336 18.060813 0.399151 106.755641 89.527532 123.875517 -2.430665 0.869710 1.589751 -17.360661 1.063044 -22.906863 1.114369 5.103613 15.473786 1.069232 -2.857259 3.046583 2.381900 -9.619900 -27.754400 -1.745592 -2.534085 0.273074 20.564010 -2.342879 -13.563752 -0.764384 0.548570 1.150810 -0.569445 6.469738 6.582721 -0.129800 2.322400 -6.397600 3.416015 -0.924638 -9.537572 1.623679 -1.744297 -1.086267 -3.885595 -1.243540 4.147757 -2.038931 -2.117190 -24.214693 6.328314 -1.928293 17.483246 -0.360600 0.011300 9.364400 -1.331956 -3.897877 2.624734 -95.078030 -51.343857 30.388648 50.316639 -50.578252 -22.248898 -1.729923 1.078434 -72.794871 18.708908 30.336580 8.872200 -7.125000 0.000000 0.000000 -14.136000 59.010300 -4.901200 3.099497 5.385901 4.694604 105.823470 58.270318 25.591530 -36.362440 47.564138 -10.472899 1.318671 -0.451869 141.264246 -13.904445 -2.440352 0.856900 7.125000 0.000000 0.000000 10.977700 -33.593000 3.119200 
1.526239 18.061105 0.400317 107.185325 89.510399 124.311228 -2.432893 0.874406 1.589880 -17.384970 1.112008 -22.928845 1.110107 5.094032 15.439679 1.076862 -2.891471 3.107596 2.393100 -9.640900 -27.821700 -1.747713 -2.526317 0.264013 20.561785 -2.367264 -13.562378 -0.763108 0.549625 1.151064 -0.565076 6.412495 6.570391 -0.135300 2.370700 -6.531300 3.385817 -0.926053 -9.516414 1.642335 -1.741033 -1.145917 -3.893593 -1.241879 4.125800 -2.062352 -2.125423 -24.132628 6.381045 -1.941566 17.539868 -0.346500 0.014700 9.369000 -1.336534 -3.904016 2.633575 -95.263620 -51.170619 30.800728 50.517597 -50.673062 -22.422154 -1.738516 1.088675 -72.975682 18.962095 30.502831 9.040600 -7.125000 0.000000 0.000000 -13.975800 59.219500 -4.914600 3.093187 5.403742 4.676212 106.226397 57.994572 25.931172 -36.302038 47.571206 -10.466308 1.246343 -0.499773 140.700846 -13.201825 -2.990606 0.937100 7.125000 0.000000 0.000000 11.546000 -34.116200 3.136900 
1.526919 18.061202 0.401775 108.607554 89.489272 125.747136 -2.438977 0.897287 1.595566 -17.369278 1.019405 -22.910522 1.105591 5.092688 15.412179 1.067541 -2.838598 3.117205 2.366500 -9.591000 -27.662200 -1.752951 -2.501771 0.243807 20.563346 -2.427324 -13.568791 -0.762882 0.555356 1.152242 -0.562453 6.392155 6.602280 -0.134100 2.360300 -6.502400 3.318630 -0.926493 -9.479719 1.714584 -1.730658 -1.232296 -3.876108 -1.234050 4.089778 -2.157887 -2.167197 -24.039385 6.472588 -1.986974 17.582690 -0.315400 0.001800 9.366000 -1.344034 -3.907364 2.643951 -95.549524 -51.012515 31.269153 50.698589 -50.764932 -22.576290 -1.719851 1.108202 -73.180010 19.376587 30.283945 9.180100 -7.125000 0.000000 0.000000 -13.438500 59.109100 -4.685600 3.082351 5.424030 4.662221 106.483938 57.729763 26.176098 -36.231695 47.548866 -10.444919 1.177485 -0.523536 140.196611 -12.748748 -3.582959 1.030700 7.125000 0.000000 0.000000 11.938800 -34.669600 3.083800 
1.526724 18.060813 0.401969 109.874693 89.472046 127.015844 -2.449024 0.915705 1.605633 -17.359736 0.982826 -22.905151 1.101856 5.091263 15.390184 1.073142 -2.860617 3.150594 2.337600 -9.536400 -27.488200 -1.761172 -2.483600 0.231033 20.571518 -2.476541 -13.572641 -0.762968 0.560970 1.153943 -0.563597 6.423118 6.586385 -0.141400 2.423100 -6.676500 3.340231 -0.905917 -9.513400 1.694336 -1.709266 -1.227284 -3.915014 -1.218120 4.114484 -2.205930 -2.219111 -24.017269 6.567176 -2.055059 17.666643 -0.291500 -0.015500 9.386800 -1.343112 -3.901788 2.653762 -95.953202 -50.968208 31.678323 50.774384 -50.822175 -22.650455 -1.700372 1.102648 -73.306836 19.389277 30.011208 9.110900 -7.125000 0.000000 0.000000 -13.279200 58.864200 -4.550700 3.078267 5.439265 4.648113 106.709229 57.617225 26.396329 -36.107445 47.488875 -10.392459 1.122788 -0.520536 139.767887 -12.611312 -4.137246 1.133800 7.125000 0.000000 0.000000 12.096700 -35.184600 2.971300 
1.526433 18.060133 0.401289 110.105053 89.474605 127.282909 -2.453584 0.915134 1.603295 -17.376847 1.033964 -22.968552 1.099765 5.086505 15.373540 1.077912 -2.882261 3.175452 2.375800 -9.608500 -27.718100 -1.766067 -2.481088 0.228447 20.575751 -2.467534 -13.611008 -0.764067 0.561182 1.155084 -0.568930 6.497805 6.546792 -0.136400 2.380600 -6.558600 3.404428 -0.879475 -9.590349 1.643955 -1.686475 -1.253725 -3.980080 -1.204668 4.161450 -2.198024 -2.239936 -23.948500 6.634751 -2.095410 17.766509 -0.279600 -0.017600 9.406200 -1.343993 -3.905127 2.659046 -96.125158 -50.825498 32.093819 51.051613 -50.942346 -22.869180 -1.672801 1.083482 -73.716052 19.413765 29.505935 8.983600 -7.125000 0.000000 0.000000 -12.981900 58.405800 -4.303200 3.081890 5.454518 4.646106 107.024865 57.462372 26.784026 -36.141272 47.564350 -10.440738 1.109551 -0.631492 138.890228 -11.507832 -3.786847 0.983700 7.125000 0.000000 0.000000 12.866500 -34.862600 3.271600 
